<?xml version="1.0" encoding="UTF-8"?>
<svg width="237px" height="43px" viewBox="0 0 237 43" version="1.1" xmlns="http://www.w3.org/2000/svg" xmlns:xlink="http://www.w3.org/1999/xlink">
    <!-- Generator: Sketch 43.1 (39012) - http://www.bohemiancoding.com/sketch -->
    <title>Group 4</title>
    <desc>Created with Sketch.</desc>
    <defs>
        <linearGradient x1="50%" y1="2.26203763%" x2="50%" y2="100%" id="linearGradient-1">
            <stop stop-color="#65CC66" offset="0%"></stop>
            <stop stop-color="#5EC65E" offset="76.3531195%"></stop>
            <stop stop-color="#7AD77A" offset="100%"></stop>
        </linearGradient>
        <linearGradient x1="50%" y1="2.26203763%" x2="50%" y2="100%" id="linearGradient-2">
            <stop stop-color="#5FC75F" offset="0%"></stop>
            <stop stop-color="#60C860" offset="76.3531195%"></stop>
            <stop stop-color="#7CD97C" offset="100%"></stop>
        </linearGradient>
        <linearGradient x1="47.5015881%" y1="2.32746085%" x2="52.6167978%" y2="99.9314767%" id="linearGradient-3">
            <stop stop-color="#60C860" offset="0%"></stop>
            <stop stop-color="#60C860" offset="76.3531195%"></stop>
            <stop stop-color="#7CD97C" offset="100%"></stop>
        </linearGradient>
    </defs>
    <g id="Page-1" stroke="none" stroke-width="1" fill="none" fill-rule="evenodd">
        <g id="Artboard" transform="translate(-43.000000, -38.000000)">
            <g id="Group-4" transform="translate(43.000000, 34.000000)">
                <path d="M14.007038,45.3057049 C19.1131139,45.3057049 22.1389367,43.4927213 24.8621772,40.5843934 L21.1555443,36.8451148 C19.0752911,38.7336393 17.2219747,39.9422951 14.1961519,39.9422951 C9.65741772,39.9422951 6.51812658,36.1652459 6.51812658,31.6327869 L6.51812658,31.5572459 C6.51812658,27.0247869 9.73306329,23.3232787 14.1961519,23.3232787 C16.8437468,23.3232787 18.924,24.4563934 20.9664304,26.3071475 L24.6730633,22.039082 C22.2145823,19.6217705 19.2265823,17.9598689 14.2339747,17.9598689 C6.10207595,17.9598689 0.428658228,24.116459 0.428658228,31.6327869 L0.428658228,31.7083279 C0.428658228,39.3001967 6.2155443,45.3057049 14.007038,45.3057049 Z M29.0157617,22.3790164 L35.0674073,22.3790164 L35.0674073,17.28 L29.0157617,17.28 L29.0157617,22.3790164 Z M29.1670529,44.852459 L34.9161162,44.852459 L34.9161162,24.6074754 L29.1670529,24.6074754 L29.1670529,44.852459 Z M47.1637766,45.1923934 C49.0927387,45.1923934 50.4921817,44.7391475 51.7025108,44.0215082 L51.7025108,39.4135082 C50.8704096,39.8667541 49.9248399,40.1311475 48.865802,40.1311475 C47.5798273,40.1311475 47.0124855,39.4890492 47.0124855,38.167082 L47.0124855,29.5176393 L51.7781564,29.5176393 L51.7781564,24.6074754 L47.0124855,24.6074754 L47.0124855,19.432918 L41.2634222,19.432918 L41.2634222,24.6074754 L38.842764,24.6074754 L38.842764,29.5176393 L41.2634222,29.5176393 L41.2634222,39.1113443 C41.2634222,43.7948852 43.6462577,45.1923934 47.1637766,45.1923934 Z M56.1208548,22.3790164 L62.1725004,22.3790164 L62.1725004,17.28 L56.1208548,17.28 L56.1208548,22.3790164 Z M56.272146,44.852459 L62.0212093,44.852459 L62.0212093,24.6074754 L56.272146,24.6074754 L56.272146,44.852459 Z M66.7421356,44.852459 L84.3675533,44.852459 L84.3675533,40.2066885 L73.8528191,40.2066885 L84.3675533,28.648918 L84.3675533,24.6074754 L67.0825406,24.6074754 L67.0825406,29.2532459 L77.2190469,29.2532459 L66.7421356,40.8110164 L66.7421356,44.852459 Z M97.7498973,45.3057049 C91.6604289,45.3057049 87.1595175,41.0376393 87.1595175,34.8432787 L87.1595175,34.7677377 C87.1595175,28.9888525 91.2822011,24.2297705 97.1825555,24.2297705 C103.952834,24.2297705 107.054302,29.4798689 107.054302,35.2209836 C107.054302,35.6742295 107.01648,36.2030164 106.978657,36.7318033 L92.8707581,36.7318033 C93.4380998,39.3379672 95.2535935,40.6977049 97.8255429,40.6977049 C99.7545049,40.6977049 101.153948,40.093377 102.742505,38.6203279 L106.033087,41.5286557 C104.141948,43.8704262 101.418707,45.3057049 97.7498973,45.3057049 Z M92.7951125,33.1436066 L101.45653,33.1436066 C101.116125,30.5752131 99.6032137,28.8377705 97.1825555,28.8377705 C94.7997201,28.8377705 93.2489859,30.5374426 92.7951125,33.1436066 Z M111.321355,44.852459 L117.070419,44.852459 L117.070419,33.559082 C117.070419,30.8396066 118.469862,29.4420984 120.663583,29.4420984 C122.857305,29.4420984 124.143279,30.8396066 124.143279,33.559082 L124.143279,44.852459 L129.892343,44.852459 L129.892343,31.7460984 C129.892343,27.1003279 127.358216,24.2297705 123.008596,24.2297705 C120.096241,24.2297705 118.394216,25.7783607 117.070419,27.4780328 L117.070419,24.6074754 L111.321355,24.6074754 L111.321355,44.852459 Z M143.257588,45.0413115 L132.553739,18.4131148 L138.983613,18.4131148 L145.905183,37.0339672 L152.826752,18.4131148 L159.105334,18.4131148 L148.401486,45.0413115 L143.257588,45.0413115 Z M169.877906,45.3057049 C163.599324,45.3057049 158.947121,40.6599344 158.947121,34.8432787 L158.947121,34.7677377 C158.947121,28.951082 163.637147,24.2297705 169.953552,24.2297705 C176.232134,24.2297705 180.884337,28.875541 180.884337,34.6921967 L180.884337,34.7677377 C180.884337,40.5843934 176.194311,45.3057049 169.877906,45.3057049 Z M169.953552,40.3577705 C173.244134,40.3577705 175.210919,37.8271475 175.210919,34.8432787 L175.210919,34.7677377 C175.210919,31.7838689 173.05502,29.1777049 169.877906,29.1777049 C166.587324,29.1777049 164.620539,31.7083279 164.620539,34.6921967 L164.620539,34.7677377 C164.620539,37.7516066 166.776438,40.3577705 169.953552,40.3577705 Z M185.15139,22.3790164 L191.203035,22.3790164 L191.203035,17.28 L185.15139,17.28 L185.15139,22.3790164 Z M185.302681,44.852459 L191.051744,44.852459 L191.051744,24.6074754 L185.302681,24.6074754 L185.302681,44.852459 Z M206.022645,45.3057049 C210.069683,45.3057049 212.33905,43.7571148 214.305835,41.6041967 L210.939607,38.2048525 C209.540164,39.5268197 208.216366,40.3577705 206.287404,40.3577705 C203.148113,40.3577705 201.143506,37.864918 201.143506,34.7677377 L201.143506,34.6921967 C201.143506,31.7083279 203.185936,29.1777049 206.060468,29.1777049 C208.102898,29.1777049 209.388873,30.0464262 210.674847,31.4061639 L214.192366,27.6291148 C212.301227,25.5139672 209.918392,24.2297705 206.09829,24.2297705 C199.895354,24.2297705 195.470088,28.9888525 195.470088,34.7677377 L195.470088,34.8432787 C195.470088,40.6221639 199.933177,45.3057049 206.022645,45.3057049 Z M227.083014,45.3057049 C220.993546,45.3057049 216.492635,41.0376393 216.492635,34.8432787 L216.492635,34.7677377 C216.492635,28.9888525 220.615318,24.2297705 226.515672,24.2297705 C233.285951,24.2297705 236.387419,29.4798689 236.387419,35.2209836 C236.387419,35.6742295 236.349597,36.2030164 236.311774,36.7318033 L222.203875,36.7318033 C222.771217,39.3379672 224.58671,40.6977049 227.15866,40.6977049 C229.087622,40.6977049 230.487065,40.093377 232.075622,38.6203279 L235.366204,41.5286557 C233.475065,43.8704262 230.751824,45.3057049 227.083014,45.3057049 Z M222.128229,33.1436066 L230.789647,33.1436066 C230.449242,30.5752131 228.936331,28.8377705 226.515672,28.8377705 C224.132837,28.8377705 222.582103,30.5374426 222.128229,33.1436066 Z" id="Citizen-Voice" fill="url(#linearGradient-1)"></path>
                <rect id="Rectangle" fill="#FFFFFF" x="181.841772" y="15.7377049" width="13.3955696" height="8.6557377"></rect>
                <g id="Group" transform="translate(173.016138, 34.513291) rotate(-5.000000) translate(-173.016138, -34.513291) translate(159.016138, 22.013291)">
                    <path d="M23.3027712,12.1629558 C23.3027712,18.8195883 18.1073035,24.216779 11.6987642,24.216779 C5.29022479,24.216779 0.0947570762,18.8195883 0.0947570762,12.1629558 C0.0947570762,5.50573886 5.29022479,0.109132644 11.6987642,0.109132644 C18.1073035,0.109132644 23.3027712,5.50573886 23.3027712,12.1629558 L27.5791139,21.7187663" id="Fill-2" fill="url(#linearGradient-2)"></path>
                    <path d="M7.6997766,4.76425009 C8.10073002,7.12555549 7.91954203,9.39379201 7.53684673,12.1174892 C7.25304464,14.1388157 6.64920695,16.1390607 6.27861181,18.1476812 C6.05372308,19.3663642 6.15406464,20.3107293 7.23897914,21.0144958 C8.18470997,21.6282313 9.54688014,20.9928511 10.1653939,20.376366 C10.6504705,19.8917923 11.1428442,19.1833927 11.8501131,19.0431784 C12.90532,18.8338752 13.8437965,19.403159 14.7328263,19.8796195 C15.3111148,20.1897044 15.9308934,20.6244369 16.6101155,20.5940597 C17.3783225,20.5599708 18.8593752,19.3710117 18.4146219,19.0968321 C17.4945912,18.9473334 17.7141272,18.6847967 17.1469422,18.3806021 C16.8948364,18.2449529 16.4652049,18.5154006 16.0744845,17.9866521 C15.7345717,17.5274002 15.4729708,17.5018131 14.9121141,17.5607405 C14.5046081,17.6037072 14.0874852,17.3911304 13.8628871,16.9963109 C13.6951572,16.7015971 13.4508426,16.7417518 13.1978097,16.5255968 C12.9784665,16.3388404 13.1852841,16.0844033 13.3684769,15.8628527 C14.2808251,14.7622421 15.280853,13.7047387 16.4028905,12.8261544 C17.4983498,11.968864 18.4881953,11.2235642 19.265143,10.8766281" id="Fill-3" fill="#FFFFFF"></path>
                    <path d="M20.5152035,10.3734664 C19.8560096,11.5136572 16.3674513,10.8961504 12.7246709,8.99413602 C9.08115019,7.09215769 6.66287494,4.62549531 7.3218221,3.48531649 C7.98172996,2.3446213 11.469301,2.96217613 15.1128218,4.86415446 C18.7556154,6.76640298 21.1748646,9.23278317 20.5152035,10.3734664" id="Fill-4" fill="#FFFFFF"></path>
                    <path d="M10.8093898,7.22568994 C10.8093898,7.22568994 14.4538309,7.37524403 16.1095903,10.2473129 C16.1095903,10.2473129 13.3461469,9.28021929 10.8093898,7.22568994" id="Fill-5" fill="#5FC85F"></path>
                    <path d="M9.41512628,7.70860787 C9.41512628,7.70860787 12.2613709,10.6919497 16.0187448,11.4163987 C16.0187448,11.4163987 13.8244596,13.4481314 12.7443324,14.8452857 C12.507627,15.1519924 12.1033832,15.5085064 12.0043594,15.5580747 C11.9060127,15.6071278 11.0390814,16.2078621 9.81667925,15.3925489 C8.59451117,14.5772234 9.07531469,12.8357058 9.12064952,12.4327972 C9.16646494,12.0301032 9.45562782,10.344215 9.41512628,7.70860787" id="Fill-6" fill="url(#linearGradient-3)"></path>
                </g>
                <g id="Group-2" transform="translate(174.569937, 14.936056) rotate(-14.000000) translate(-174.569937, -14.936056) translate(158.069937, 3.936056)" fill="#77D577">
                    <path d="M0.284890599,2.83363918 C0.284890599,2.83363918 -0.185274735,2.05225866 0.337074897,1.72868472 C0.859677851,1.40511077 1.5132482,2.3374082 1.5132482,2.3374082 C1.5132482,2.3374082 4.2878823,6.02615118 5.30218294,13.4443367 C5.30218294,13.4443367 3.48257217,6.96906589 0.284890599,2.83363918" id="Fill-7"></path>
                    <path d="M27.2337238,14.946554 C27.2337238,14.946554 27.809271,14.6131212 27.589641,14.2230629 C27.3702643,13.8332574 26.6242315,14.1987948 26.6242315,14.1987948 C26.6242315,14.1987948 23.5519442,15.5800511 20.2894122,19.9606862 C20.2894122,19.9606862 23.7340826,16.4650764 27.2337238,14.946554" id="Fill-8"></path>
                    <path d="M9.45592647,1.80037657 C9.45592647,1.80037657 8.99944052,0.409261394 9.73534046,0.267950585 C10.7172159,0.0793676444 10.855783,1.42396906 10.855783,1.42396906 C10.855783,1.42396906 11.5967493,7.66540713 10.2566768,14.5934287 C10.2566768,14.5934287 11.0285484,6.78240417 9.45592647,1.80037657" id="Fill-9"></path>
                    <path d="M15.5883416,16.2561943 C15.5883416,16.2561943 19.1237011,4.88585638 19.3504242,4.11635709 C19.5768939,3.346605 20.4468011,1.46835937 22.4341109,1.89886439 C23.3088312,2.08795291 22.365714,3.98161887 21.8775629,4.69221759 C21.3878917,5.40534423 15.5883416,16.2561943 15.5883416,16.2561943" id="Fill-10"></path>
                    <path d="M21.9149532,21.1184995 L30.4901507,18.4512896 C30.4901507,18.4512896 32.8001926,17.8635478 32.9575054,18.5665628 C33.114565,19.2700833 30.7561387,19.5390542 30.7561387,19.5390542 L21.9149532,21.1184995 Z" id="Fill-11"></path>
                </g>
            </g>
        </g>
    </g>
</svg>